<svg xmlns="http://www.w3.org/2000/svg" width="100.69" height="24.809" viewBox="0 0 100.69 24.809">
  <path id="Path_85" data-name="Path 85" d="M108.661,22.141l-.912.248c-.877-2.978-2.345-4.265-4.418-4.265a2.344,2.344,0,0,0-2.482,2.482c0,1.457,1.209,2.233,4.454,3.554,3,1.1,4.24,2.452,4.24,4.809,0,3.589-2.819,5.84-7.445,5.84a18.73,18.73,0,0,1-6.172-1.066l-.177-4.987.877-.177c1.315,3.412,3,4.7,5.188,4.7a2.677,2.677,0,0,0,2.891-2.665c0-1.35-.769-2.132-3.731-3.2-2.819-.931-4.75-2.132-4.75-5.129,0-2.949,2.593-5.449,7.012-5.449a13.148,13.148,0,0,1,5.224.931ZM89.578,23.7c.107-2.345-.367-5.732-2.3-5.732-1.985,0-3.068,3.163-3.1,5.875Zm-1.824-6.87c4.856,0,7.2,3.554,7.237,8.22H84.07c-.035,4.134,2.156,7.261,6.254,7.261a6.017,6.017,0,0,0,3.908-1.279l.509.568a8.715,8.715,0,0,1-7.012,3.2c-5.33,0-9.027-3.66-9.027-8.824-.012-4.667,3.021-9.145,9.05-9.145M72,25.482c-.107-3.7-1.457-6.621-4.051-6.621a5.213,5.213,0,0,0-1.824.355l.213,14.2a4.518,4.518,0,0,0,1.315.177C70.177,33.6,72,30.03,72,25.481m5.414-.284c0,5.84-3.7,9.606-9.939,9.606a29.821,29.821,0,0,1-6.539-.817c.177-2.345.177-16.875,0-19.6-.177-1.427-.581-2.1-1.675-2.233l-.735-.071v-.651L66.231,10c-.035,1.208-.107,4.382-.107,8.115A8.936,8.936,0,0,1,70.4,17.049c4.016,0,7.012,3.412,7.012,8.149M57.786,22.023c-2.381-1.563-4.94-.888-5.449,0a62.78,62.78,0,0,0,.035,9.109c.107,1.427.509,2.026,1.611,2.132l1.457.143v.931H44.555v-.931l.841-.143c1.055-.107,1.427-.711,1.493-2.132a54.32,54.32,0,0,0,0-9.82c-.071-1.528-.438-2.1-1.493-2.233l-.841-.107v-.639l7.782-1.493-.107,3.98C54.054,16.7,57.679,16.2,59.645,17.3ZM32.248,25.837c0,4.347,1.179,7.9,3.536,7.9,2.558,0,3.293-3.482,3.293-7.9s-1.132-7.865-3.537-7.865c-2.57,0-3.293,3.376-3.293,7.865m12.343-.071c0,4.987-3.293,9.038-9.168,9.038-5.78,0-8.694-3.85-8.694-8.9,0-4.951,3.293-9.073,9.168-9.073,5.78,0,8.694,3.873,8.694,8.931M29.465,17.2l-1.208.355c-1.019-3.494-2.819-5.484-5.923-5.484H18.283a85.714,85.714,0,0,0-.225,9.784l2.7-.143c1.824,0,2.593-1.315,3.032-3.233h1.019v8.077H23.79c-.438-1.954-1.208-3.288-3.032-3.387l-2.7-.035a64.836,64.836,0,0,0,.225,6.835c.177,2.132.769,3.1,2.333,3.3l1.469.143v.931H8.854v-.931l1.1-.143c1.528-.213,2.156-1.179,2.333-3.3a113.924,113.924,0,0,0,0-15.055c-.177-2.2-.805-3.091-2.333-3.269l-1.1-.177V10.5H29.43Z" transform="translate(-8.854 -10)" fill="#1e1e22" opacity="0.17"/>
</svg>
