<svg xmlns="http://www.w3.org/2000/svg" width="104.825" height="32.218" viewBox="0 0 104.825 32.218">
  <path id="Path_84" data-name="Path 84" d="M13.931,25.114c0,1.279.344,1.376,1.819,1.426v.442h-5.7v-.442c1.179-.049,1.523-.2,1.523-1.426V16.858c0-1.279-.344-1.376-1.474-1.426V14.99H20.124l.049,2.654h-.493c-.393-1.327-.885-1.769-3.243-1.769H14.571c-.59,0-.688.1-.688.629v3.833h2.065c1.916,0,2.309-.344,2.516-1.572h.442v4.277h-.442c-.245-1.426-.983-1.819-2.516-1.819H13.884v3.883Zm11.893,0c0,1.279.344,1.376,1.819,1.426v.442h-6v-.442c1.426-.049,1.819-.2,1.819-1.426V16.858c0-1.279-.294-1.376-1.819-1.426V14.99h6v.442c-1.426.049-1.819.2-1.819,1.426Zm14.252-7.961c0-1.179-.294-1.671-1.671-1.819v-.442h4.277v.442c-1.327.147-1.671.629-1.671,1.819V27.216h-.629l-8.256-9.534v6.979c0,1.179.294,1.671,1.671,1.819v.442H29.52V26.48c1.327-.147,1.671-.629,1.671-1.819V16.59a2.161,2.161,0,0,0-1.671-1.229v-.442h3.292l7.225,8.355V17.13Zm6.438,5.5,1.819-4.767,1.819,4.767Zm8.648,4.325v-.442c-.943,0-1.13-.344-1.572-1.474l-4.277-10.42h-.59L44.3,25.407a1.625,1.625,0,0,1-1.474,1.13v.442h3.883v-.432c-.835,0-1.229-.2-1.229-.786a12.619,12.619,0,0,1,.688-2.2h4.374a11.886,11.886,0,0,1,.737,2.2c0,.59-.442.786-1.279.786v.442ZM66.92,17.152c0-1.179-.294-1.671-1.671-1.819v-.442h4.277v.442c-1.327.147-1.671.629-1.671,1.819V27.216h-.629L58.97,17.682v6.979c0,1.179.294,1.671,1.671,1.819v.442h-4.3V26.48c1.327-.147,1.671-.629,1.671-1.819V16.59a2.161,2.161,0,0,0-1.671-1.229v-.442h3.292l7.225,8.355ZM82.2,24.18A5.757,5.757,0,0,1,76.8,27.325c-3.931,0-6.289-2.556-6.289-6.438A6.293,6.293,0,0,1,76.9,14.645a17.643,17.643,0,0,1,3.342.737c.344,0,.442-.2.786-.737h.629l.245,4.029h-.493c-.737-1.868-1.965-3.243-4.088-3.243-2.851,0-4.088,3.1-4.088,5.406,0,3.243,1.376,5.455,4.424,5.455a5.175,5.175,0,0,0,4.177-2.516Zm5.8.943c0,1.279.344,1.376,1.819,1.426v.442h-6v-.442c1.426-.049,1.819-.2,1.819-1.426V16.867c0-1.279-.344-1.376-1.819-1.426V15h6v.442c-1.426.049-1.819.2-1.819,1.426Zm6.782-2.457L96.6,17.9l1.819,4.767Zm8.648,4.325v-.442c-.943,0-1.13-.344-1.572-1.474l-4.277-10.42h-.59L92.57,25.418a1.625,1.625,0,0,1-1.474,1.13v.442h3.883v-.442c-.835,0-1.229-.2-1.229-.786a12.619,12.619,0,0,1,.688-2.2h4.374a11.888,11.888,0,0,1,.737,2.2c0,.59-.442.786-1.279.786v.442Zm1.08,0v-.442c1.13-.049,1.474-.2,1.474-1.426V16.867c0-1.279-.344-1.376-1.474-1.426V15h5.554v.442c-1.327.049-1.671.2-1.671,1.426v8.491c0,.737.2.983,1.523.983,2.163,0,3.44-.393,4.472-2.516h.435l-.835,3.243h-9.583v-.1Zm-91.9,19.078c1.376-.049,1.719-.2,1.719-1.426V35.356h-1.48c-1.376,0-1.965.59-2.359,2.2H10l.294-3.1H20.909l.294,3.1H20.71c-.393-1.671-.943-2.2-2.359-2.2H16.877v9.287c0,1.279.344,1.376,1.719,1.426v.442H12.8v-.442ZM26.57,44.644c0,1.279.344,1.376,1.819,1.426v.442h-6v-.442c1.426-.049,1.819-.2,1.819-1.426V36.388c0-1.279-.344-1.376-1.819-1.426V34.52h6v.442c-1.426.049-1.819.2-1.819,1.426Zm14.5-10.223h4.177v.442c-1.13.049-1.474.2-1.474,1.426v8.305c0,1.279.344,1.376,1.474,1.426v.442H39.77V46.02c1.179-.049,1.523-.2,1.523-1.426V36.1h-.049L37.215,46.67h-.589L32.645,36.1H32.6v8.157c0,1.179.294,1.671,1.671,1.819v.442H29.99V46.08c1.327-.147,1.671-.629,1.671-1.819V36.005c0-.835-.344-1.13-1.671-1.13v-.442h4.374l3.2,8.363Zm5.849,12.089v-.442c1.13-.049,1.474-.2,1.474-1.426V36.387c0-1.279-.344-1.376-1.474-1.426v-.442H56.979l.049,2.654h-.493c-.393-1.327-.885-1.769-3.243-1.769H51.425c-.59,0-.688.1-.688.629v3.833H52.8c1.916,0,2.309-.344,2.516-1.572h.442V42.57h-.442c-.245-1.426-.983-1.769-2.516-1.769H50.737v4.177c0,.737.2.983,2.359.983s3.44-.393,4.472-2.516h.442l-.835,3.243H46.814v-.2ZM59.7,42.737h.442c.493,1.572,2.065,3.292,3.833,3.292a1.912,1.912,0,0,0,2.065-2.015c0-2.8-6.289-3.292-6.289-6.733a3.329,3.329,0,0,1,3.44-3.1c1.819,0,2.457.629,3.243.629a.632.632,0,0,0,.629-.629h.442v3.883h-.442a3.726,3.726,0,0,0-3.391-3.047,1.69,1.69,0,0,0-1.868,1.719c0,2.457,6.289,2.516,6.289,6.782a3.422,3.422,0,0,1-3.735,3.342c-2.113,0-2.654-.737-3.491-.737-.294,0-.493.2-.629.629h-.629Z" transform="translate(-10 -14.645)" fill="#1e1e22" opacity="0.17"/>
</svg>
