<svg xmlns="http://www.w3.org/2000/svg" width="45.1" height="54.37" viewBox="0 0 45.1 54.37">
  <g id="_e5382fff" data-name=" e5382fff" transform="translate(-960.07 -1301.45)" opacity="0.17">
    <path id="Path_11" data-name="Path 11" d="M960.07,1301.45v54.37h45.1v-54.37Zm8.04,46.39a1.289,1.289,0,0,1-.91.66,8.049,8.049,0,0,1-.98.06v2.3c0,.04-.02.1-.02.14-.27.01-.54,0-.82,0a.83.83,0,0,1-.38-.03v-.02c.02-2.12,0-4.25.02-6.37l-.01-.02h1.62a1.729,1.729,0,0,1,.32.02,1.378,1.378,0,0,1,.29.08,1.437,1.437,0,0,1,.29.11,2.116,2.116,0,0,1,.25.16h.01a1.548,1.548,0,0,1,.4.59,1.613,1.613,0,0,1,.16.72A3.122,3.122,0,0,1,968.11,1347.84Zm4.08,2.04a1.389,1.389,0,0,1-.68,1.04c-.1.08-.24-.01-.3.12a2.457,2.457,0,0,1-1.56-.13,1.505,1.505,0,0,1-.69-.91,3.435,3.435,0,0,1-.09-.44,6.429,6.429,0,0,1-.12-.88c-.01-.15-.01-.3-.01-.46v-.19a10.752,10.752,0,0,1,.15-2.12,1.889,1.889,0,0,1,.65-1.18,1.234,1.234,0,0,1,.26-.12c.08-.03.17-.06.26-.09a2.04,2.04,0,0,1,.92-.03,1.265,1.265,0,0,1,.28.06.06.06,0,0,1,.04.01.876.876,0,0,1,.2.09,1.075,1.075,0,0,1,.24.18,1.3,1.3,0,0,1,.19.22.552.552,0,0,1,.09.14,3.561,3.561,0,0,1,.17,1.74h-.01c-.18.01-.37.01-.56.02s-.37.02-.56.02v-.01a4.714,4.714,0,0,0,.01-.92c-.01-.13-.03-.26-.05-.39l-.01-.01c-.04-.13-.08-.29-.23-.35-.01,0-.02-.01-.03-.01a.481.481,0,0,0-.49.08.912.912,0,0,0-.08.13.694.694,0,0,0-.05.13,5.364,5.364,0,0,0-.13,1.33c-.02.25-.02.5-.02.75v.74a8.893,8.893,0,0,0,.1,1.36.731.731,0,0,0,.09.26l.01.01a.9.9,0,0,0,.09.1.771.771,0,0,0,.11.08.528.528,0,0,0,.62-.16,1.345,1.345,0,0,0,.15-.48.989.989,0,0,0,.02-.17.75.75,0,0,0,0-.15v-.07a1.768,1.768,0,0,0,.01-.23q0-.315-.03-.63h.54a4.861,4.861,0,0,0,.54.01A4.508,4.508,0,0,1,972.19,1349.88Zm5.22,1.11h-1.1v-.01c-.01-.52-.01-1.02-.01-1.54,0-1.03.01-2.06.01-3.09,0,.03-.01.05-.01.08-.01.11-.03.21-.04.32-.02.14-.03.27-.04.4a7.1,7.1,0,0,1-.1.79c-.16,1.01-.35,2.02-.5,3.03v.01c-.34.01-.68.01-1.03,0v-.01c-.05-.33-.1-.65-.16-.97-.16-.97-.33-1.94-.47-2.92a.5.5,0,0,1-.02-.12c-.02-.15-.02-.3-.04-.46-.03.6.01,1.2,0,1.79v1.77c0,.3,0,.59.01.89h-.01a.768.768,0,0,1-.3.03h-.79v-6.41c.51.01,1.03-.01,1.54.01h.01c.24,1.46.48,2.92.73,4.38v.02l.01.01c.22-1.3.45-2.6.67-3.9v-.01a4.194,4.194,0,0,1,.11-.51c.51-.01,1.01,0,1.52,0h.01Zm2.92,0c-.09-.35-.15-.72-.21-1.07-.01-.03-.01-.07-.02-.1-.31-.01-.63,0-.95,0-.08.39-.1.79-.22,1.18-.37-.02-.74-.01-1.11-.01v-.01a9.291,9.291,0,0,1,.16-.92c.02-.1.04-.2.06-.31.33-1.73.67-3.45.99-5.18a8.306,8.306,0,0,1,1-.03h.01c.06,0,.15-.02.2.02a.032.032,0,0,1,.03.03.09.09,0,0,1,.01.05q.54,2.64,1.09,5.28c.03.18.07.36.11.54a4.339,4.339,0,0,1,.09.52C981.15,1351,980.74,1350.98,980.33,1350.99Zm1.35-29.71a10.455,10.455,0,0,1-.26,2.9,5.371,5.371,0,0,1-1.38,2.54,5.214,5.214,0,0,1-1.48,1.02,8.91,8.91,0,0,1-1.23.42,9.266,9.266,0,0,1-1.28.22,23.016,23.016,0,0,1-2.49.07h-1.04c-.02.69,0,1.38-.01,2.07v11.85h-7.52v-35.94H965l.02-.11c3.1.01,6.2,0,9.3,0a10.8,10.8,0,0,1,3.62.48,5.066,5.066,0,0,1,2.2,1.37h.01c.09.11.19.22.27.33a5.37,5.37,0,0,1,.46.71,5.527,5.527,0,0,1,.67,2.03,8.787,8.787,0,0,1,.1.88,8.527,8.527,0,0,1,.03,1.24Zm3.62,29.57a.241.241,0,0,1-.04.15c-.15-.02-.32.03-.45-.03,0-.01-.01-.01-.01-.02a1.758,1.758,0,0,1-.14-.23,1.589,1.589,0,0,0-.13-.22,1.06,1.06,0,0,1-.73.59,1.948,1.948,0,0,1-1.23-.2,1.369,1.369,0,0,1-.25-.23,1.4,1.4,0,0,1-.33-.51,1.709,1.709,0,0,1-.09-.3,1.844,1.844,0,0,1-.04-.23,8.923,8.923,0,0,1-.16-1.71c0-.16.01-.31.02-.46a7.726,7.726,0,0,1,.06-.96,4.162,4.162,0,0,1,.08-.49l.12-.45a1.409,1.409,0,0,1,.28-.56,1.606,1.606,0,0,1,.5-.39v.02a2.471,2.471,0,0,1,1.32-.1,1.206,1.206,0,0,1,.86.59,3.13,3.13,0,0,1,.26,1.31,2.546,2.546,0,0,1-.02.39c-.38-.01-.76.05-1.14.01v-.02a3.106,3.106,0,0,0,.03-.43,3.215,3.215,0,0,0-.13-.87c-.01-.01-.01-.01-.01-.02a1.061,1.061,0,0,0-.09-.11.568.568,0,0,0-.13-.08.439.439,0,0,0-.57.24,4.919,4.919,0,0,0-.17,1.48c-.01.32-.01.65-.01.97,0,.23,0,.45.01.67,0,.12,0,.24.01.35a2.691,2.691,0,0,0,.03.4.91.91,0,0,0,.03.23c.01.1.03.2.05.3a.67.67,0,0,0,.1.21.326.326,0,0,0,.16.12.607.607,0,0,0,.75-.23,3.61,3.61,0,0,0,.15-1.46h-.01c-.21,0-.41-.01-.62,0v-.02c-.02-.3-.03-.61-.02-.9.57-.01,1.12-.01,1.69,0h.01Zm1.86.11a.409.409,0,0,1-.24.04c-.36-.01-.72.01-1.08-.01v-.02c.01-.46,0-.92,0-1.39h.53c.26,0,.52,0,.78.02,0,.45-.01.9.01,1.35Zm3.9-1.55a1.965,1.965,0,0,1-.54,1.39,1.707,1.707,0,0,1-1.24.32,1.347,1.347,0,0,1-.62-.12.874.874,0,0,1-.26-.12.744.744,0,0,1-.22-.14c-.01-.01-.02-.02-.02-.03a2.1,2.1,0,0,1-.34-.5,2.714,2.714,0,0,1-.17-.62,12.186,12.186,0,0,1-.12-2.26,7.132,7.132,0,0,1,.24-1.72.853.853,0,0,1,.09-.24c0-.01.01-.02.01-.03a.01.01,0,0,1,.01-.01c.01-.02.01-.04.03-.06.03-.06.06-.11.09-.16a.174.174,0,0,1,.04-.05,1.1,1.1,0,0,1,.15-.16.52.52,0,0,1,.11-.1,2,2,0,0,1,.18-.13h.01a2.234,2.234,0,0,1,1.3-.16,1.01,1.01,0,0,1,.17.03c.03,0,.05.01.08.01l.06.03a.185.185,0,0,1,.07.02c.03.01.06.03.09.04a.01.01,0,0,1,.01.01,1,1,0,0,1,.14.08,1.282,1.282,0,0,1,.41.48c0,.01,0,.01.01.02a3.483,3.483,0,0,1,.15,1.72c-.37.02-.73.04-1.1.04v-.02a4.1,4.1,0,0,0-.11-1.44c0-.01-.01-.02-.02-.03a.412.412,0,0,0-.07-.11.45.45,0,0,0-.62,0,1.094,1.094,0,0,0-.2.58,17.343,17.343,0,0,0-.07,1.91c.01.4,0,.81.01,1.22.01.14.02.27.03.41a1.155,1.155,0,0,0,.03.26,1.069,1.069,0,0,0,.07.19.96.96,0,0,0,.16.25c0,.01,0,.01.01.02a.54.54,0,0,0,.7-.12,1.632,1.632,0,0,0,.17-.79c0-.12,0-.23-.01-.35a3.753,3.753,0,0,0-.02-.58,7.753,7.753,0,0,1,1.08.02h.01A4.186,4.186,0,0,1,991.06,1349.41Zm4,.16a2.189,2.189,0,0,1-.55,1.18,1.666,1.666,0,0,1-1.11.38,1.948,1.948,0,0,1-1.11-.24l-.02-.02a1.536,1.536,0,0,1-.19-.17,1.233,1.233,0,0,1-.18-.22l-.01-.01a1.616,1.616,0,0,1-.21-.51,7.283,7.283,0,0,1-.22-1.86,9.579,9.579,0,0,1,.18-2.26,1.9,1.9,0,0,1,.58-1.05,1.585,1.585,0,0,1,.96-.3v-.01a1.986,1.986,0,0,1,.84.1.817.817,0,0,1,.19.09,1.577,1.577,0,0,1,.24.15,2.251,2.251,0,0,1,.21.24,1.629,1.629,0,0,1,.14.22,2.161,2.161,0,0,1,.25.74,11.739,11.739,0,0,1,.01,3.55Zm5.21,1.43c-.37-.01-.73,0-1.1-.01v-.01c-.01-1.12,0-2.24,0-3.36.01-.42.02-.85,0-1.27-.05.34-.07.69-.1,1.03-.01.12-.02.24-.04.35-.08.54-.18,1.07-.27,1.61v.01l-.27,1.62a7.852,7.852,0,0,1-.84.03c-.07-.01-.16.02-.19-.05-.17-.99-.34-1.97-.5-2.96-.04-.23-.08-.46-.11-.7a5.522,5.522,0,0,1-.06-.57,2.487,2.487,0,0,1-.03-.27v2.98c-.01.51,0,1.02,0,1.52v.02a2.286,2.286,0,0,1-.37.01c-.12.01-.25.01-.37.01s-.24.01-.36.01v-6.43h1.55c.25,1.47.49,2.94.74,4.41.12-.64.23-1.27.34-1.91l.04-.04v-.02a2.223,2.223,0,0,1,.07-.57c.11-.63.2-1.25.33-1.87h1.54Zm0-30.25h-7.13c-.02-1.16,0-2.3-.01-3.46v-4.56a1.541,1.541,0,0,0-.26-1.1h-.01a1.269,1.269,0,0,0-.39-.26,1.837,1.837,0,0,0-.22-.07,1.068,1.068,0,0,0-.4-.02.865.865,0,0,0-.28.04.965.965,0,0,0-.26.11.5.5,0,0,0-.13.09,1.335,1.335,0,0,0-.2.21,1.193,1.193,0,0,0-.08.16l-.06.18a1.162,1.162,0,0,0-.04.18,1.411,1.411,0,0,0-.01.29v23.63a1.343,1.343,0,0,0,.33.96,1.246,1.246,0,0,0,1,.27,1.224,1.224,0,0,0,.19-.02.019.019,0,0,0,.03,0c.04-.01.08-.03.12-.04a.18.18,0,0,0,.09-.04.419.419,0,0,0,.14-.09.608.608,0,0,0,.15-.13c.02-.01.04-.02.04-.04a.658.658,0,0,0,.12-.17,2.541,2.541,0,0,0,.13-1.06V1327h7.14v8.72a7.481,7.481,0,0,1-.1,1.42v.02c-.03.19-.06.39-.11.58a7.213,7.213,0,0,1-.25.91c-.06.17-.13.33-.2.49-.02.03-.03.06-.05.09-.08.16-.18.32-.28.48a4.917,4.917,0,0,1-.8.97,1.547,1.547,0,0,1-.13.12,1.326,1.326,0,0,0-.14.11,6.935,6.935,0,0,1-1.24.77,6.354,6.354,0,0,1-1.37.48,13.633,13.633,0,0,1-1.79.3,14.594,14.594,0,0,1-1.87.06,15.615,15.615,0,0,1-3.79-.47h-.01a6.646,6.646,0,0,1-1.14-.38c-.14-.06-.29-.13-.43-.2a4.5,4.5,0,0,1-.48-.27c-.19-.12-.38-.25-.56-.38s-.35-.28-.52-.43a5.275,5.275,0,0,1-1.25-1.84,6.855,6.855,0,0,1-.38-1.32,7.194,7.194,0,0,1-.12-1.6v-22.5c-.01-.11-.01-.22-.01-.33a8.209,8.209,0,0,1,.1-1.2c.02-.14.04-.27.07-.41a5.456,5.456,0,0,1,1.43-2.75,6.339,6.339,0,0,1,2.16-1.42,14.169,14.169,0,0,1,5.2-.86c.18,0,.36,0,.54.01s.33.01.5.02a14.8,14.8,0,0,1,1.63.19c.27.05.54.11.81.17q.345.09.69.21a5.3,5.3,0,0,1,.65.28,4.8,4.8,0,0,1,.5.27,1.593,1.593,0,0,1,.22.13c.17.11.33.23.49.35a4.482,4.482,0,0,1,.45.42,5.066,5.066,0,0,1,.37.44.265.265,0,0,1,.05.06c.09.12.17.25.25.38a3.785,3.785,0,0,1,.33.63,7.8,7.8,0,0,1,.58,3.05Z" fill="#1e1e22"/>
    <path id="Path_112" data-name="Path 112" d="M974.88,1321.92a2.538,2.538,0,0,1-.22.6,1.589,1.589,0,0,1-1.21.68,4.79,4.79,0,0,1-.93.06c-.02-2.74-.01-5.48-.01-8.23.01-1.17,0-2.34.01-3.51a3.236,3.236,0,0,1,1.73.33,1.522,1.522,0,0,1,.4.4,1.207,1.207,0,0,1,.22.52,2.967,2.967,0,0,1,.06.43,5.448,5.448,0,0,1,.01.7v7.11A2.762,2.762,0,0,1,974.88,1321.92Z" fill="#1e1e22"/>
    <path id="Path_113" data-name="Path 113" d="M993.92,1347.81a12.853,12.853,0,0,1-.07,1.86.77.77,0,0,1-.02.15.753.753,0,0,1-.07.18c0,.01-.01.02-.01.03l-.02.02a.611.611,0,0,1-.15.17.562.562,0,0,1-.4.06c-.04-.02-.08-.03-.12-.05a.858.858,0,0,1-.3-.66,19.652,19.652,0,0,1-.06-2.17v-.23c0-.19,0-.38.01-.57s.02-.37.04-.55a1.116,1.116,0,0,1,.23-.68v-.01a.345.345,0,0,1,.23-.1,1.286,1.286,0,0,0,.21-.06l.06.06c.01.02.02.03.04.03a1.035,1.035,0,0,1,.11.08.17.17,0,0,1,.06.06,1.356,1.356,0,0,1,.11.25.575.575,0,0,1,.03.14.278.278,0,0,1,.03.13c.02.23.04.46.05.69C993.93,1347.03,993.93,1347.42,993.92,1347.81Z" fill="#1e1e22"/>
    <path id="Path_114" data-name="Path 114" d="M967.09,1346.59a1.337,1.337,0,0,1-.15.74,1.868,1.868,0,0,1-.11.19.847.847,0,0,1-.62.12c-.01-.37-.01-.74-.01-1.11v-1.11a.659.659,0,0,1,.71.21A1.777,1.777,0,0,1,967.09,1346.59Z" fill="#1e1e22"/>
    <path id="Path_115" data-name="Path 115" d="M979.93,1348.92c-.2.01-.41.01-.62.01.07-.89.24-1.77.29-2.66C979.7,1347.15,979.83,1348.03,979.93,1348.92Z" fill="#1e1e22"/>
  </g>
</svg>
