<svg xmlns="http://www.w3.org/2000/svg" width="241.442" height="21.022" viewBox="0 0 241.442 21.022">
  <path id="Path_86" data-name="Path 86" d="M11.977,28.978c0,.932.27,1.112.872,1.263l.932.21v.42h-6.2v-.42l.782-.18c.6-.15.872-.452.872-1.293V10.752H8.578c-1.859,0-2.616,3.032-2.826,6.256H5.3V10.15H15.916v6.857h-.451c-.21-3.218-.962-6.256-2.827-6.256h-.662Zm4.6,1.474.662-.181c.6-.15.872-.451.872-1.293V12.015c0-.842-.27-1.113-.872-1.263l-.662-.18v-.42h5.865v.421l-.692.18c-.571.15-.9.391-.9,1.233V19.9H25.39v-7.91c0-.842-.331-1.083-.9-1.233l-.692-.18v-.421h5.865v.42l-.662.18c-.6.15-.872.421-.872,1.263V28.947c0,.842.27,1.174.872,1.324l.662.18v.42H23.8v-.42l.692-.15c.571-.15.9-.481.9-1.323V20.586H20.849v8.392c0,.842.331,1.173.9,1.323l.692.15v.42H16.578Zm18.015-.18h2.076c2.707,0,3.218-3.068,3.579-6.256H40.7v6.856H30.323v-.42l.662-.18c.6-.15.872-.452.872-1.293V12.044c0-.842-.27-1.143-.872-1.293l-.662-.18v-.42H40.4v6.857h-.451c-.331-3.218-.962-6.256-3.278-6.256H34.593V19.8l.962-.03c1.293-.09,1.774-1.2,2.1-3.82h.451v8.361H37.66c-.27-3.278-.782-3.784-2.135-3.88l-.932-.03ZM47.129,12.917c-.39-1.774-.631-2.044-1.2-2.2l-.571-.15V10.15h5.623v.421l-.451.089c-.962.21-.872,1.173-.6,2.466L52.3,24.916l1.745-9.383-.631-3.219c-.241-1.143-.331-1.5-.932-1.654l-.39-.089v-.42h5.5v.42l-.662.121c-.993.18-.842,1.263-.6,2.436l2.286,11.79L60.875,13.76c.421-2.316.21-2.887-.692-3.068l-.632-.121V10.15h4.12v.421l-.571.15c-.722.18-.9.752-1.323,2.767l-3.668,17.5H57.33L54.5,17.339,51.946,30.993h-.993ZM76.542,30.271h1.2c2.556,0,3.308-3.039,3.609-6.256h.451v6.856H66.438v-.42l.631-.121c1.293-.24,1.293-.6.962-2.406l-.571-2.707h-3.7l-.39,2.046c-.451,2.316-.21,2.886.692,3.067l.631.121v.42H60.51v-.42l.511-.15c.812-.241,1.023-.722,1.444-2.767l3.668-17.5h.9L70.885,28.1c.39,1.865.571,2.255,1.654,2.255.932,0,1.263-.481,1.263-1.382V12.015c0-.842-.27-1.113-.872-1.263l-.662-.18v-.42h5.955V10.6l-.812.18c-.6.121-.872.391-.872,1.233ZM63.881,24.526h3.429l-1.745-8.54Zm22.856,5.744h1.2c2.556,0,3.308-3.039,3.609-6.256H92v6.856H82.467v-.42l.662-.18c.6-.15.872-.452.872-1.293V12.015c0-.842-.27-1.113-.872-1.263l-.662-.18v-.42h5.955V10.6l-.812.18c-.6.121-.872.391-.872,1.233Zm15.07.721c-1.744,0-2.346-1.2-2.917-1.2-.331,0-.722.089-1.023,1.083h-.361V24.015h.451c.361,3.88,1.8,6.315,3.82,6.315,1.353,0,2.286-1.233,2.286-3.458,0-4.692-6.706-6.706-6.706-11.909,0-2.8,1.444-4.932,4-4.932,1.654,0,2.015,1.083,2.707,1.083.39,0,.662-.3.812-.962h.361v6.855h-.451c-.361-3.458-1.293-6.316-3.458-6.316-1.5,0-1.8,1.5-1.8,2.526,0,4.481,6.706,6.015,6.706,12.27,0,3.189-1.745,5.5-4.422,5.5Zm11.067-2.014c0,.842.27,1.143.872,1.293l.782.181v.42h-6.045v-.42l.782-.181c.6-.15.872-.451.872-1.293V10.752h-.662c-1.865,0-2.616,3.038-2.827,6.256H106.2V10.15h10.616v6.857h-.451c-.21-3.218-.962-6.256-2.827-6.256h-.662V28.978Zm4.6,1.474.662-.181c.6-.15.872-.451.872-1.293V12.015c0-.842-.27-1.113-.872-1.263l-.662-.18v-.42h5.744a4.707,4.707,0,0,1,4.932,5.022,4.807,4.807,0,0,1-3.729,5.114c2.737.511,2.737,1.8,3.008,5.262l.181,2.647c.09,1.474.151,1.805.571,1.805.451,0,.632-1.022.632-2.015v-.511h.511v.691c0,1.654-.361,2.827-2.075,2.827-1.684,0-2.466-.962-2.587-4.42l-.15-3.85c-.06-1.834-.512-2.105-1.384-2.105h-1.414v8.354c0,.842.27,1.173.872,1.323l.662.15v.42h-5.774Zm4.241-10.436h.993c1.684,0,2.526-.451,2.526-4.451s-1.113-4.812-2.316-4.812h-1.2Zm12.06,10.256h2.075c2.707,0,3.219-3.068,3.579-6.256h.451v6.856H129.506v-.42l.662-.18c.6-.15.872-.452.872-1.293V12.044c0-.842-.27-1.143-.872-1.293l-.662-.18v-.42h10.075v6.857h-.451c-.33-3.218-.962-6.256-3.278-6.256h-2.075V19.8l.962-.03c1.293-.09,1.775-1.2,2.1-3.82h.451v8.361h-.451c-.271-3.278-.781-3.784-2.136-3.88l-.931-.03Zm11.158,0h2.076c2.706,0,3.218-3.068,3.578-6.256h.451v6.856H140.665v-.42l.662-.18c.6-.15.872-.452.872-1.293V12.044c0-.842-.271-1.143-.872-1.293l-.662-.18v-.42H150.74v6.857h-.451c-.331-3.218-.962-6.256-3.278-6.256h-2.076V19.8l.962-.03c1.293-.09,1.774-1.2,2.105-3.82h.451v8.361H148c-.27-3.278-.782-3.784-2.135-3.88l-.932-.03Zm13.444-1.293c0,.932.271,1.112.872,1.263l.932.21v.42h-6.2v-.42l.782-.18c.6-.15.872-.452.872-1.293V10.752h-.662c-1.865,0-2.616,3.038-2.827,6.256H151.7V10.15h10.616v6.857h-.451c-.21-3.218-.962-6.256-2.827-6.256h-.662Zm16.513-2.887c0,3.219-1.625,4.9-4.12,4.9a3.574,3.574,0,0,1-3.549-3.849,2.042,2.042,0,0,1,2.105-2.225,1.386,1.386,0,0,1,1.233,1.629c-.09,1.5-1.715,1.444-1.775,2.376a1.625,1.625,0,0,0,1.653,1.419c1.685,0,1.685-2.135,1.685-3.759v-14.6c0-.842-.271-1.083-.932-1.233l-.752-.18V10.15h5.925v.42l-.662.18c-.6.15-.812.42-.812,1.263Zm7.008,4.931c-3.519,0-5.234-4.751-5.234-10.527,0-5.744,1.654-10.5,5.234-10.5,3.549,0,5.263,4.751,5.263,10.5C187.162,26.27,185.533,31.022,181.9,31.022Zm0-20.331c-1.5,0-2.255,1.2-2.255,9.684,0,8.752.691,9.985,2.255,9.985s2.286-1.233,2.286-10.046c0-8.42-.722-9.623-2.286-9.623Zm17.174,19.759.662-.181c.6-.15.872-.451.872-1.293V12.015c0-.993-.451-1.353-1.5-1.353-1.323,0-1.654.6-1.654,2.316V26.03c0,3.248-1.143,4.993-3.939,4.993-2.887,0-4.571-1.744-4.571-4.9V12.014c0-.842-.21-1.113-.812-1.263l-.662-.18v-.42h5.983v.42l-.812.18c-.662.15-.932.391-.932,1.233V26.33c0,2.917.842,3.668,2.376,3.668,1.805,0,2.556-1.023,2.556-3.97V14.06c0-2.526-.034-3.128-1.112-3.369l-.571-.121v-.421h9.865a4.707,4.707,0,0,1,4.932,5.022,4.807,4.807,0,0,1-3.729,5.114c2.737.511,2.737,1.8,3.008,5.262l.181,2.647c.09,1.474.15,1.805.571,1.805.451,0,.632-1.022.632-2.015v-.511h.511v.691c0,1.654-.361,2.827-2.075,2.827-1.684,0-2.466-.962-2.587-4.42l-.15-3.85c-.06-1.834-.512-2.105-1.383-2.105h-1.414v8.356c0,.842.27,1.173.872,1.323l.662.15v.42h-5.775v-.42h0Zm4.241-10.436h.993c1.684,0,2.526-.451,2.526-4.451s-1.113-4.812-2.316-4.812h-1.2Zm8.15-9.323-.42-.121v-.42h3.939L220.367,23.8V13.97c0-2.225.06-3.007-1.535-3.278l-.511-.121v-.421h4.451v.42l-.42.121c-1.293.3-1.2,1.353-1.2,3.458V30.87h-.962L213.45,14.3V27.051c0,2.436,0,3.128,1.925,3.4v.42h-4.332v-.42l.542-.09c1.112-.211,1.083-1.293,1.083-3.489V12.5c-.512-1.052-.722-1.629-1.209-1.8Zm26.466,19.579h1.2c2.556,0,3.308-3.039,3.609-6.256h.452v6.856H227.857v-.42l.632-.121c1.293-.24,1.323-.6.962-2.406l-.571-2.707h-3.7l-.392,2.046c-.452,2.316-.21,2.886.692,3.067l.631.121v.42h-4.181v-.42l.511-.15c.813-.241,1.022-.722,1.444-2.767l3.668-17.5h.9L232.3,28.1c.392,1.865.541,2.255,1.624,2.255.931,0,1.263-.481,1.263-1.382V12.015c0-.842-.27-1.113-.872-1.263l-.662-.18v-.42h5.955V10.6l-.812.18c-.6.121-.872.391-.872,1.233ZM225.3,24.526h3.429l-1.744-8.54Zm21.443,5.022a1.327,1.327,0,1,1-1.323-1.419A1.362,1.362,0,0,1,246.742,29.549Z" transform="translate(-5.3 -10)" fill="#1e1e22" opacity="0.17"/>
</svg>
