<svg xmlns="http://www.w3.org/2000/svg" width="145.523" height="35.338" viewBox="0 0 145.523 35.338">
  <g id="Group_31" data-name="Group 31" opacity="0.17">
    <path id="Path_31" data-name="Path 31" d="M12.859,24.837a6.662,6.662,0,0,0,1.117,10.588L32.3,47.995,23.415,27.641c-1.862-4.8-6.955-5.85-10.557-2.805" transform="translate(-5.664 -14.852)" fill="#1e1e22"/>
    <path id="Path_32" data-name="Path 32" d="M25.459,17.123a6.522,6.522,0,0,0-5.447,9.023L29.2,47.817l3.228-22.794c.749-5.665-3.541-8.28-6.945-7.9" transform="translate(-2.49 -17.034)" fill="#1e1e22"/>
    <path id="Path_33" data-name="Path 33" d="M30.042,24.169h1.738s.926,0,1.054.436c-.684.545-2.547.626-2.3,3.612l2.921,19.61L42.581,26.1a6.611,6.611,0,0,0-5.529-9.029l-.494-.022a6.466,6.466,0,0,0-6.52,7.116" transform="translate(1.316 -17.048)" fill="#1e1e22"/>
    <path id="Path_34" data-name="Path 34" d="M41.272,27.811l-8.631,20.11L50.958,35.283A6.573,6.573,0,0,0,47.4,23.159c-2.277,0-4.712,1.208-6.128,4.652" transform="translate(2.26 -14.837)" fill="#1e1e22"/>
    <path id="Path_35" data-name="Path 35" d="M49.157,34.481,31.954,46.5H53.137c4.358,0,7.139-4.494,5.9-8.58a6.4,6.4,0,0,0-9.876-3.437" transform="translate(2.012 -11.172)" fill="#1e1e22"/>
    <path id="Path_36" data-name="Path 36" d="M13.713,46.513h20.87L17.377,34.5c-3.977-2.555-8.443-1.06-10.058,3.179a6.715,6.715,0,0,0,6.4,8.852" transform="translate(-7.013 -11.188)" fill="#1e1e22"/>
    <path id="Path_37" data-name="Path 37" d="M54.629,31.866c0,2.594,2.122,7.317,10.221,7.317,7.467,0,9.826-3.426,9.826-5H68.894s-.275,2.074-3.534,2.074a4.054,4.054,0,0,1-4.145-4.3,3.937,3.937,0,0,1,4.145-4.145c3.263,0,3.535,1.807,3.535,1.807h5.78c0-1.573-1.73-4.952-9.826-4.952S54.629,29.7,54.629,31.863m60.631,0c0,2.594,2.124,7.317,10.221,7.317,7.467,0,9.826-3.426,9.826-5H129.53s-.276,2.075-3.538,2.075a4.054,4.054,0,0,1-4.147-4.3,3.939,3.939,0,0,1,4.147-4.145c3.262,0,3.538,1.807,3.538,1.807h5.777c0-1.573-1.73-4.952-9.826-4.952S115.26,29.7,115.26,31.863M90.478,24.929v8.784L83.75,24.929H76.181V38.841h5.175V29.957l6.61,8.885h7.686V24.929H90.478M107.092,35.5v.018h-4.309V32.968h4.324v0a1.51,1.51,0,0,1,1.67,1.267c0,.7-.746,1.262-1.67,1.262m-4.283-7.9h4.167V27.6a1.058,1.058,0,1,1,0,2.07v.007h-4.181Zm8.529,3.81a3.3,3.3,0,0,0,2.92-3.221c0-3.023-5.633-3.3-6.5-3.3H97.4V38.8h10.377c4.991,0,7-1.577,7-4.211s-3.4-3.187-3.4-3.187Z" transform="translate(10.216 -14.29)" fill="#1e1e22"/>
  </g>
</svg>
