<svg xmlns="http://www.w3.org/2000/svg" width="61" height="57" viewBox="0 0 61 57">
  <g id="Group_85" data-name="Group 85" transform="translate(-196 -2764)">
    <path id="Polygon_16" data-name="Polygon 16" d="M28.5,0,57,53H0Z" transform="translate(257 2821) rotate(180)" opacity="0.1"/>
    <path id="Polygon_17" data-name="Polygon 17" d="M28.5,0,57,53H0Z" transform="translate(253 2817) rotate(180)" fill="#1e1e22" opacity="0.85"/>
    <path id="Icon_awesome-eye-slash" data-name="Icon awesome-eye-slash" d="M11.988,14.984A5.374,5.374,0,0,1,6.634,10L2.7,6.961A12.485,12.485,0,0,0,1.329,9.043a1.212,1.212,0,0,0,0,1.093,12.015,12.015,0,0,0,10.658,6.646,11.636,11.636,0,0,0,2.918-.392l-1.944-1.5a5.4,5.4,0,0,1-.974.1Zm11.756,2.176L19.6,13.96a12.409,12.409,0,0,0,3.044-3.824,1.212,1.212,0,0,0,0-1.093A12.015,12.015,0,0,0,11.988,2.4,11.544,11.544,0,0,0,6.469,3.81L1.7.126A.6.6,0,0,0,.862.231l-.735.947a.6.6,0,0,0,.105.841l22.04,17.035a.6.6,0,0,0,.841-.105L23.849,18a.6.6,0,0,0-.106-.841Zm-6.882-5.319L15.389,10.7a3.55,3.55,0,0,0-4.35-4.568,1.785,1.785,0,0,1,.349,1.057,1.747,1.747,0,0,1-.058.375L8.573,5.436A5.331,5.331,0,0,1,11.988,4.2,5.391,5.391,0,0,1,17.382,9.59a5.266,5.266,0,0,1-.521,2.252Z" transform="translate(236.688 2790.09) rotate(180)" fill="#8cedb5"/>
  </g>
</svg>
