<svg xmlns="http://www.w3.org/2000/svg" width="61" height="57" viewBox="0 0 61 57">
  <g id="Group_86" data-name="Group 86" transform="translate(-343 -2764)">
    <path id="Polygon_20" data-name="Polygon 20" d="M28.5,0,57,53H0Z" transform="translate(404 2821) rotate(180)" opacity="0.1"/>
    <path id="Polygon_21" data-name="Polygon 21" d="M28.5,0,57,53H0Z" transform="translate(400 2817) rotate(180)" fill="#1e1e22" opacity="0.85"/>
    <path id="Path_87" data-name="Path 87" d="M10.341,15.93A10.339,10.339,0,0,0,5.255,35.271a.424.424,0,0,0,.328.041.431.431,0,0,0,.259-.2l3.189-5.636a.431.431,0,0,0-.163-.587,3.017,3.017,0,1,1,2.955,0,.431.431,0,0,0-.163.587l3.18,5.636a.431.431,0,0,0,.259.2.414.414,0,0,0,.116.016.431.431,0,0,0,.212-.056A10.339,10.339,0,0,0,10.341,15.93Z" transform="translate(361.573 2754.171)" fill="#8cedb5"/>
  </g>
</svg>
