<svg xmlns="http://www.w3.org/2000/svg" width="61" height="57" viewBox="0 0 61 57">
  <g id="Group_80" data-name="Group 80" transform="translate(-708 -2764)">
    <path id="Polygon_30" data-name="Polygon 30" d="M28.5,0,57,53H0Z" transform="translate(769 2821) rotate(180)" opacity="0.1"/>
    <path id="Polygon_31" data-name="Polygon 31" d="M28.5,0,57,53H0Z" transform="translate(765 2817) rotate(180)" fill="#1e1e22" opacity="0.85"/>
    <path id="Icon_metro-earth" data-name="Icon metro-earth" d="M13.608,1.928A11.038,11.038,0,1,0,24.646,12.966,11.038,11.038,0,0,0,13.608,1.928Zm0,20.7a9.625,9.625,0,0,1-3.821-.786l5.026-5.654a.69.69,0,0,0,.174-.458v-2.07a.69.69,0,0,0-.69-.69c-2.436,0-5.006-2.532-5.031-2.557a.69.69,0,0,0-.488-.2H6.02a.69.69,0,0,0-.69.69v4.139a.69.69,0,0,0,.381.617L8.09,16.841v4.05A9.664,9.664,0,0,1,4.88,8.827H7.4a.69.69,0,0,0,.488-.2l2.759-2.759a.69.69,0,0,0,.2-.488V3.708a9.685,9.685,0,0,1,6.991.574c-.089.075-.176.154-.26.238A4.14,4.14,0,0,0,20.5,11.586q.1,0,.205-.005a16.2,16.2,0,0,1-.181,8.027.688.688,0,0,0-.018.113,9.628,9.628,0,0,1-6.9,2.9Z" transform="translate(749.817 2793.466) rotate(180)" fill="#8cedb5"/>
  </g>
</svg>
