<svg id="Group_157" data-name="Group 157" xmlns="http://www.w3.org/2000/svg" width="72.006" height="42.775" viewBox="0 0 72.006 42.775">
  <rect id="Rectangle_114" data-name="Rectangle 114" width="72.006" height="42.775" rx="9.234" transform="translate(0 0)" fill="#00679a"/>
  <g id="Group_152" data-name="Group 152" transform="translate(8.941 11.588)">
    <path id="Path_4504" data-name="Path 4504" d="M764.2,102.644h-.174c0-.087-.044-.218-.044-.261s0-.131-.131-.131h-.261v.392h-.131v-.915h.392c.174,0,.3.044.3.218a.256.256,0,0,1-.087.218.228.228,0,0,1,.087.174v.174c0,.043,0,.043.044.043v.087Zm-.174-.654c0-.131-.087-.131-.131-.131h-.305v.262h.261c.087,0,.174-.044.174-.131Zm.741.174a.977.977,0,0,0-1-.958.967.967,0,0,0-.958.958.98.98,0,1,0,1.96,0Zm-.131,0a.837.837,0,0,1-.871.828.8.8,0,0,1-.828-.828.827.827,0,0,1,.828-.828.866.866,0,0,1,.871.828Z" transform="translate(-762.762 -82.682)" fill="#fff" fill-rule="evenodd"/>
    <path id="Path_4505" data-name="Path 4505" d="M809.878,61.789v1.04l-.633-1.04h-4.288v1.04l-.54-1.04h-5.823a5.411,5.411,0,0,0-2.531.5v-.5h-4.014v.5a2.681,2.681,0,0,0-1.717-.5H775.666l-1,2.257-1.036-2.257h-4.606v1.04l-.54-1.04H764.56l-1.85,4.2v4.646h2.619l.584-1.443h1.31l.544,1.443h5.1v-1.08l.452,1.08h2.664l.451-1.128v1.128h12.637V68.289h.226c.181,0,.226.045.226.314v2.031h6.544v-.54a5.426,5.426,0,0,0,2.438.54h2.752l.588-1.443h1.31l.585,1.443h5.283V69.28l.814,1.354h4.239V61.789Zm-30.827,7.584h-1.535V64.408L775.3,69.373h-1.31l-2.208-4.964v4.964h-3.071l-.588-1.4h-3.159l-.584,1.4h-1.628l2.708-6.319h2.257l2.575,5.956V63.054h2.438l1.987,4.288,1.85-4.288h2.482Zm6.182-5.013h-3.518v1.128h3.474V66.8h-3.474v1.265h3.518v1.31h-5.053V63.054h5.053Zm6.818,2.619a1.689,1.689,0,0,1,.27,1.128v1.265h-1.536v-.814a1.917,1.917,0,0,0-.226-1.217,1.55,1.55,0,0,0-1.128-.27h-1.624v2.3h-1.491V63.054h3.478a3.652,3.652,0,0,1,1.805.27,1.561,1.561,0,0,1,.81,1.443,1.792,1.792,0,0,1-1.084,1.673A1.86,1.86,0,0,1,792.051,66.979Zm2.752,2.393h-1.535V63.054H794.8Zm17.916,0h-2.164l-2.845-4.739v4.739h-3.067l-.588-1.4H800.9l-.588,1.4h-1.761a3.265,3.265,0,0,1-2.208-.721,3.3,3.3,0,0,1-.77-2.393,3.265,3.265,0,0,1,.814-2.483,3.065,3.065,0,0,1,2.3-.721h1.442v1.354h-1.442a1.6,1.6,0,0,0-1.173.359,2.063,2.063,0,0,0-.407,1.446,2.255,2.255,0,0,0,.407,1.487,1.505,1.505,0,0,0,1.036.318h.677l2.168-4.965h2.257l2.527,5.956V63.054h2.349l2.664,4.377V63.054h1.531Z" transform="translate(-762.71 -61.789)" fill="#fff" fill-rule="evenodd"/>
    <path id="Path_4506" data-name="Path 4506" d="M825.7,86.2h2.978V84.933h-2.8a3.231,3.231,0,0,0-1.894.544v-.544h-4.11a2.99,2.99,0,0,0-1.85.544v-.544h-7.358v.544a3.855,3.855,0,0,0-2.075-.544h-4.872v.544a3.41,3.41,0,0,0-2.124-.544h-5.461l-1.265,1.354-1.173-1.354h-8.124v8.849h7.987l1.31-1.354,1.172,1.354h4.969V91.7h.452a4.979,4.979,0,0,0,2.119-.314v2.394h4.062V91.477h.226c.226,0,.27,0,.27.274v2.031H820.5a3.467,3.467,0,0,0,2.031-.544v.544h3.929a5.527,5.527,0,0,0,2.208-.407V91.767a2.42,2.42,0,0,1-2.031.75h-2.933V91.163h2.933a.908.908,0,0,0,.588-.137.573.573,0,0,0,.181-.4.691.691,0,0,0-.181-.451.762.762,0,0,0-.54-.137c-1.4-.044-3.159.044-3.159-1.942A1.9,1.9,0,0,1,825.7,86.2Zm-24.146,4.2h-1.894v2.119h-2.938l-1.85-2.075-1.939,2.075h-6V86.2h6.093l1.85,2.075L796.81,86.2h4.828c1.177,0,2.531.362,2.531,2.075C804.168,90.035,802.859,90.4,801.549,90.4Zm9.115-.274a2.09,2.09,0,0,1,.226,1.177v1.217H809.4v-.766a2.024,2.024,0,0,0-.27-1.266c-.226-.226-.544-.27-1.084-.27h-1.624v2.3H804.89V86.2h3.474a3.792,3.792,0,0,1,1.85.314,1.42,1.42,0,0,1,.769,1.4,1.74,1.74,0,0,1-1.084,1.668A1.765,1.765,0,0,1,810.664,90.123Zm6.23-2.616h-3.566v1.173h3.478v1.265h-3.478v1.261h3.566v1.31h-5.053V86.2h5.053Zm3.837,5.009H817.8V91.163h2.934a1.013,1.013,0,0,0,.588-.137.575.575,0,0,0,.181-.4.693.693,0,0,0-.181-.451.776.776,0,0,0-.544-.137c-1.4-.044-3.159.044-3.159-1.942,0-.9.544-1.894,2.168-1.894h3.023v1.354h-2.8a1.1,1.1,0,0,0-.588.088.543.543,0,0,0-.226.5.494.494,0,0,0,.319.451,2.318,2.318,0,0,0,.584.089h.814a2.574,2.574,0,0,1,1.761.5,1.954,1.954,0,0,1,.451,1.354C823.124,91.884,822.266,92.517,820.731,92.517Z" transform="translate(-774.828 -74.057)" fill="#fff" fill-rule="evenodd"/>
    <path id="Path_4507" data-name="Path 4507" d="M873.272,90.507v1.737a1.17,1.17,0,0,0-.089-.113,2.572,2.572,0,0,0-1.761-.5h-.81a2.352,2.352,0,0,1-.588-.089.491.491,0,0,1-.314-.451.651.651,0,0,1,.226-.5,1.075,1.075,0,0,1,.584-.088Z" transform="translate(-819.427 -77.011)" fill="#fff" fill-rule="evenodd"/>
    <path id="Path_4508" data-name="Path 4508" d="M832.832,91.089a.79.79,0,0,1-.314.633,1.9,1.9,0,0,1-.721.089l-1.85.044V90.412h1.85a1.244,1.244,0,0,1,.721.133A.58.58,0,0,1,832.832,91.089Z" transform="translate(-798.35 -76.961)" fill="#fff" fill-rule="evenodd"/>
    <path id="Path_4509" data-name="Path 4509" d="M818.426,91.178a.817.817,0,0,1-.9.858h-1.983V90.412h1.983C818.068,90.412,818.426,90.638,818.426,91.178Z" transform="translate(-790.714 -76.961)" fill="#fff" fill-rule="evenodd"/>
    <path id="Path_4510" data-name="Path 4510" d="M809.718,89.066v5.1l-2.349-2.619Z" transform="translate(-786.382 -76.248)" fill="#fff" fill-rule="evenodd"/>
    <path id="Path_4511" data-name="Path 4511" d="M797.085,92.262l-1.717,1.85h-3.744V92.85h3.337V91.585h-3.337V90.412h3.788Z" transform="translate(-778.037 -76.961)" fill="#fff" fill-rule="evenodd"/>
    <path id="Path_4512" data-name="Path 4512" d="M847.192,69.266h-2.075l1.04-2.486Z" transform="translate(-806.391 -64.434)" fill="#fff" fill-rule="evenodd"/>
    <path id="Path_4513" data-name="Path 4513" d="M819,67.941a.615.615,0,0,1-.274.584,1.362,1.362,0,0,1-.766.137h-1.85v-1.4h1.85a1.933,1.933,0,0,1,.766.093A.667.667,0,0,1,819,67.941Z" transform="translate(-791.018 -64.689)" fill="#fff" fill-rule="evenodd"/>
    <path id="Path_4514" data-name="Path 4514" d="M770.745,69.266H768.67l1.036-2.486Z" transform="translate(-765.869 -64.434)" fill="#fff" fill-rule="evenodd"/>
  </g>
</svg>
