<svg id="Group_158" data-name="Group 158" xmlns="http://www.w3.org/2000/svg" width="113.865" height="27.587" viewBox="0 0 113.865 27.587">
  <path id="Path_4515" data-name="Path 4515" d="M941.851,67.04h7.781c4.178,0,5.751,2.115,5.508,5.227-.4,5.13-3.5,7.967-7.616,7.967h-2.077c-.564,0-.943.373-1.1,1.386l-.891,5.881c-.058.382-.259.606-.561.633h-4.879c-.459,0-.623-.351-.5-1.112l2.98-18.866A1.19,1.19,0,0,1,941.851,67.04Z" transform="translate(-931.915 -60.547)" fill="#00a1ed" fill-rule="evenodd"/>
  <path id="Path_4516" data-name="Path 4516" d="M1007.068,66.3c2.626,0,5.048,1.423,4.716,4.974-.393,4.208-2.661,6.552-6.229,6.562h-3.112c-.449,0-.664.365-.782,1.116l-.6,3.83c-.091.578-.387.864-.826.864h-2.9c-.462,0-.624-.3-.521-.956l2.4-15.354c.118-.755.406-1.036.919-1.036Zm-4.721,8.219h2.361c1.476-.056,2.457-1.078,2.556-2.922a1.782,1.782,0,0,0-1.932-1.948l-2.222.01-.762,4.86Zm17.315,7.949c.265-.24.535-.366.5-.069l-.094.711c-.049.37.1.569.445.569h2.574c.433,0,.645-.175.751-.845l1.587-9.958c.079-.5-.041-.746-.422-.746h-2.831c-.255,0-.379.143-.445.533l-.105.613c-.054.32-.2.375-.337.053-.481-1.137-1.706-1.647-3.424-1.612-3.971.082-6.649,3.1-6.935,6.961a4.786,4.786,0,0,0,4.744,5.337,5.117,5.117,0,0,0,4-1.547Zm-2.155-1.53a2.587,2.587,0,0,1-2.652-3.035,3.7,3.7,0,0,1,3.556-3.035,2.586,2.586,0,0,1,2.652,3.035,3.7,3.7,0,0,1-3.556,3.035Zm12.956-8.84h-2.6c-.54,0-.759.394-.587.9l3.241,9.493L1027.323,87c-.266.377-.061.721.315.721h2.935a.9.9,0,0,0,.872-.428l9.969-14.3c.307-.441.162-.9-.341-.9l-2.775,0c-.476,0-.667.188-.941.585L1033.2,78.7l-1.85-6.043A.8.8,0,0,0,1030.463,72.1Z" transform="translate(-963.353 -60.154)" fill="#00347d" fill-rule="evenodd"/>
  <path id="Path_4517" data-name="Path 4517" d="M1102.233,66.3c2.626,0,5.048,1.423,4.716,4.974-.393,4.208-2.661,6.552-6.229,6.562h-3.112c-.448,0-.664.365-.782,1.116l-.6,3.83c-.091.578-.387.864-.826.864h-2.9c-.462,0-.624-.3-.521-.956l2.4-15.354c.118-.755.407-1.036.919-1.036Zm-4.72,8.219h2.361c1.476-.056,2.457-1.078,2.556-2.922a1.783,1.783,0,0,0-1.933-1.948l-2.222.01-.761,4.86Zm17.315,7.949c.265-.24.535-.366.5-.069l-.094.711c-.049.37.1.569.445.569h2.574c.433,0,.645-.175.752-.845l1.587-9.958c.079-.5-.042-.746-.422-.746h-2.83c-.256,0-.379.143-.446.533l-.1.613c-.055.32-.2.375-.337.053-.481-1.137-1.705-1.647-3.424-1.612-3.971.082-6.649,3.1-6.935,6.961a4.786,4.786,0,0,0,4.744,5.337,5.117,5.117,0,0,0,4-1.547Zm-2.154-1.53a2.586,2.586,0,0,1-2.652-3.035,3.7,3.7,0,0,1,3.555-3.035,2.586,2.586,0,0,1,2.652,3.035,3.7,3.7,0,0,1-3.555,3.035Zm11.876,2.759h-2.971a.351.351,0,0,1-.365-.411l2.613-16.541a.513.513,0,0,1,.494-.411h2.971a.351.351,0,0,1,.365.411l-2.613,16.541A.513.513,0,0,1,1124.549,83.7Z" transform="translate(-1013.796 -60.154)" fill="#00a1ed" fill-rule="evenodd"/>
  <path id="Path_4518" data-name="Path 4518" d="M930.711,53.224h7.79c2.194,0,4.8.071,6.536,1.606a5.273,5.273,0,0,1,1.632,4.414c-.478,5.948-4.035,9.279-8.807,9.279h-3.841c-.654,0-1.087.433-1.272,1.607l-1.072,6.82c-.07.443-.261.7-.611.735h-4.8c-.532,0-.722-.407-.583-1.29l3.455-21.876A1.379,1.379,0,0,1,930.711,53.224Z" transform="translate(-925.641 -53.224)" fill="#00347d" fill-rule="evenodd"/>
  <path id="Path_4519" data-name="Path 4519" d="M941.005,76.765l1.36-8.609a1.19,1.19,0,0,1,1.355-1.116H951.5a7.607,7.607,0,0,1,3.145.571c-.782,5.293-4.206,8.235-8.689,8.235h-3.842C941.61,75.846,941.232,76.1,941.005,76.765Z" transform="translate(-933.785 -60.547)" fill="#002566" fill-rule="evenodd"/>
</svg>
