<svg id="Group_155" data-name="Group 155" xmlns="http://www.w3.org/2000/svg" width="72.006" height="42.775" viewBox="0 0 72.006 42.775">
  <rect id="Rectangle_111" data-name="Rectangle 111" width="72.006" height="42.775" rx="9.234" transform="translate(0 0)" fill="#f5f5f5"/>
  <g id="Group_148" data-name="Group 148" transform="translate(7.506 12.295)">
    <g id="Group_147" data-name="Group 147">
      <path id="Path_4497" data-name="Path 4497" d="M437.206,81.531h-4.574l2.859-17.568h4.574Z" transform="translate(-412.907 -63.648)" fill="#0055a5"/>
      <path id="Path_4498" data-name="Path 4498" d="M406.535,63.963l-4.361,12.083-.516-2.6h0l-1.539-7.9a1.958,1.958,0,0,0-2.17-1.582h-7.208l-.085.3a17.092,17.092,0,0,1,4.784,2.009l3.974,15.262h4.765l7.277-17.568Z" transform="translate(-390.657 -63.649)" fill="#0055a5"/>
      <path id="Path_4499" data-name="Path 4499" d="M487.383,81.531h4.2l-3.662-17.568h-3.677a2.1,2.1,0,0,0-2.111,1.309l-6.821,16.259h4.767l.953-2.609h5.815Zm-5.033-6.214,2.4-6.574,1.352,6.574Z" transform="translate(-435.529 -63.649)" fill="#0055a5"/>
      <path id="Path_4500" data-name="Path 4500" d="M461.384,67.833l.653-3.773a13.2,13.2,0,0,0-4.114-.766c-2.27,0-7.66.993-7.66,5.816,0,4.539,6.326,4.6,6.326,6.979s-5.674,1.957-7.547.454l-.68,3.944a12.814,12.814,0,0,0,5.163.993c3.121,0,7.831-1.617,7.831-6.015,0-4.568-6.383-4.993-6.383-6.979S459.427,66.755,461.384,67.833Z" transform="translate(-421.244 -63.294)" fill="#0055a5"/>
    </g>
    <path id="Path_4501" data-name="Path 4501" d="M401.659,73.445l-1.539-7.9a1.958,1.958,0,0,0-2.17-1.582h-7.208l-.085.3a17.733,17.733,0,0,1,6.789,3.408A13.7,13.7,0,0,1,401.659,73.445Z" transform="translate(-390.657 -63.649)" fill="#fc9220"/>
  </g>
</svg>
