<svg xmlns="http://www.w3.org/2000/svg" width="19.404" height="23.802" viewBox="0 0 19.404 23.802">
  <g id="Group_34" data-name="Group 34" transform="translate(0)">
    <path id="Path_9" data-name="Path 9" d="M297.938,119.876a5.094,5.094,0,0,1,3.738-2.071,5.083,5.083,0,0,1-1.23,3.8,4.02,4.02,0,0,1-3.544,1.667A4.42,4.42,0,0,1,297.938,119.876Z" transform="translate(-287.232 -117.805)" fill="#1e1e22" fill-rule="evenodd"/>
    <path id="Path_10" data-name="Path 10" d="M60.462,265.289c.8,0,2.3-1.106,4.241-1.106a5.312,5.312,0,0,1,4.662,2.381,5.169,5.169,0,0,0-2.574,4.509A5.3,5.3,0,0,0,70,275.917s-2.242,6.309-5.269,6.309c-1.391,0-2.472-.937-3.937-.937-1.493,0-2.975.972-3.94.972-2.765,0-6.258-5.985-6.258-10.8,0-4.733,2.956-7.216,5.73-7.216C58.126,264.249,59.525,265.289,60.462,265.289Z" transform="translate(-50.594 -258.46)" fill="#1e1e22" fill-rule="evenodd"/>
  </g>
</svg>
