<svg id="Group_33" data-name="Group 33" xmlns="http://www.w3.org/2000/svg" width="21.797" height="21.852" viewBox="0 0 21.797 21.852">
  <g id="Group_5" data-name="Group 5" transform="translate(0 0)">
    <path id="path5" d="M224.625,70.163q5.9-.9,11.81-1.715,0,5.178,0,10.354c-3.937.015-7.873.075-11.812.087q0-4.366,0-8.727Z" transform="translate(-214.64 -68.448)" fill="#1e1e22"/>
    <path id="path7" d="M44.267,103.72c2.96-.457,5.933-.851,8.906-1.223q0,4.295,0,8.587c-2.97,0-5.941.042-8.911.035v-7.4Z" transform="translate(-44.267 -100.612)" fill="#1e1e22"/>
    <path id="path29" d="M44.267,274.52c2.968-.01,5.936.037,8.9.032,0,2.871.008,5.741,0,8.612-2.965-.439-5.936-.824-8.906-1.226Z" transform="translate(-44.267 -263.113)" fill="#1e1e22"/>
    <path id="path31" d="M224.341,276.618h11.827q.007,5.163,0,10.329c-3.932-.589-7.871-1.136-11.81-1.67Q224.351,280.949,224.341,276.618Z" transform="translate(-214.374 -265.096)" fill="#1e1e22"/>
  </g>
</svg>
